<svg width="32" height="20" fill="none" xmlns="http://www.w3.org/2000/svg"><g filter="url(#filter0_d)"><path d="M3.737 11.237h21.046l-4.623 4.624c-.638.638-.638 1.595 0 2.232.637.638 1.594.638 2.232 0l7.334-7.334c.638-.638.638-1.594 0-2.232l-7.334-7.334c-.638-.638-1.595-.638-2.232 0-.638.637-.638 1.594 0 2.232l4.623 4.624H3.737c-.797 0-1.594.637-1.594 1.594 0 .957.797 1.594 1.594 1.594z" fill="#458FF6"/></g><defs><filter id="filter0_d" x="-1.857" y=".714" width="36.061" height="25.857" filterUnits="userSpaceOnUse" color-interpolation-filters="sRGB"><feFlood flood-opacity="0" result="BackgroundImageFix"/><feOffset dy="4"/><feGaussianBlur stdDeviation="2"/><feColorMatrix values="0 0 0 0 0 0 0 0 0 0 0 0 0 0 0 0 0 0 0.25 0"/><feBlend in="SourceGraphic" in2="effect1_dropShadow" result="shape"/></filter></defs></svg>